<svg width="1280" height="529" viewBox="0 0 1280 529" fill="none" xmlns="http://www.w3.org/2000/svg">
<rect width="8.45622" height="723.273" transform="matrix(0.85721 -0.514968 0.67362 0.739078 1200.32 -78.7647)" fill="url(#paint0_linear_2_157)" fill-opacity="0.2"/>
<rect width="8.45622" height="723.273" transform="matrix(0.85721 -0.514968 0.67362 0.739078 1086.1 -73.884)" fill="url(#paint1_linear_2_157)" fill-opacity="0.2"/>
<rect width="8.45622" height="723.273" transform="matrix(0.85721 -0.514968 0.67362 0.739078 971.876 -69.0034)" fill="url(#paint2_linear_2_157)" fill-opacity="0.2"/>
<rect width="8.45622" height="723.273" transform="matrix(0.85721 -0.514968 0.67362 0.739078 857.655 -64.1227)" fill="url(#paint3_linear_2_157)" fill-opacity="0.2"/>
<rect width="8.45622" height="723.273" transform="matrix(0.85721 -0.514968 0.67362 0.739078 743.434 -59.2421)" fill="url(#paint4_linear_2_157)" fill-opacity="0.2"/>
<rect width="8.45622" height="723.273" transform="matrix(0.85721 -0.514968 0.67362 0.739078 629.212 -54.3615)" fill="url(#paint5_linear_2_157)" fill-opacity="0.2"/>
<rect width="8.45622" height="723.273" transform="matrix(0.85721 -0.514968 0.67362 0.739078 514.991 -49.4808)" fill="url(#paint6_linear_2_157)" fill-opacity="0.2"/>
<rect width="8.45622" height="723.273" transform="matrix(0.85721 -0.514968 0.67362 0.739078 400.77 -44.6002)" fill="url(#paint7_linear_2_157)" fill-opacity="0.2"/>
<rect width="8.45622" height="723.273" transform="matrix(0.85721 -0.514968 0.67362 0.739078 286.549 -39.7195)" fill="url(#paint8_linear_2_157)" fill-opacity="0.2"/>
<rect width="8.45622" height="723.273" transform="matrix(0.85721 -0.514968 0.67362 0.739078 172.328 -34.8389)" fill="url(#paint9_linear_2_157)" fill-opacity="0.2"/>
<rect width="8.45622" height="723.273" transform="matrix(0.85721 -0.514968 0.67362 0.739078 58.1062 -29.9582)" fill="url(#paint10_linear_2_157)" fill-opacity="0.2"/>
<rect width="8.45622" height="723.273" transform="matrix(0.85721 -0.514968 0.67362 0.739078 -56.115 -25.0776)" fill="url(#paint11_linear_2_157)" fill-opacity="0.2"/>
<rect width="8.45622" height="723.273" transform="matrix(0.85721 -0.514968 0.67362 0.739078 -170.336 -20.1969)" fill="url(#paint12_linear_2_157)" fill-opacity="0.2"/>
<rect width="8.45622" height="723.273" transform="matrix(0.85721 -0.514968 0.67362 0.739078 -284.557 -15.3163)" fill="url(#paint13_linear_2_157)" fill-opacity="0.2"/>
<rect width="8.45622" height="723.273" transform="matrix(0.85721 -0.514968 0.67362 0.739078 -398.779 -10.4356)" fill="url(#paint14_linear_2_157)" fill-opacity="0.2"/>
<defs>
<linearGradient id="paint0_linear_2_157" x1="4.22811" y1="0" x2="4.22811" y2="723.273" gradientUnits="userSpaceOnUse">
<stop stop-color="#69FFED"/>
<stop offset="1" stop-color="#E392FF" stop-opacity="0"/>
</linearGradient>
<linearGradient id="paint1_linear_2_157" x1="4.22811" y1="0" x2="4.22811" y2="723.273" gradientUnits="userSpaceOnUse">
<stop stop-color="#69FFED"/>
<stop offset="1" stop-color="#E392FF" stop-opacity="0"/>
</linearGradient>
<linearGradient id="paint2_linear_2_157" x1="4.22811" y1="0" x2="4.22811" y2="723.273" gradientUnits="userSpaceOnUse">
<stop stop-color="#69FFED"/>
<stop offset="1" stop-color="#E392FF" stop-opacity="0"/>
</linearGradient>
<linearGradient id="paint3_linear_2_157" x1="4.22811" y1="0" x2="4.22811" y2="723.273" gradientUnits="userSpaceOnUse">
<stop stop-color="#69FFED"/>
<stop offset="1" stop-color="#E392FF" stop-opacity="0"/>
</linearGradient>
<linearGradient id="paint4_linear_2_157" x1="4.22811" y1="0" x2="4.22811" y2="723.273" gradientUnits="userSpaceOnUse">
<stop stop-color="#69FFED"/>
<stop offset="1" stop-color="#E392FF" stop-opacity="0"/>
</linearGradient>
<linearGradient id="paint5_linear_2_157" x1="4.22811" y1="0" x2="4.22811" y2="723.273" gradientUnits="userSpaceOnUse">
<stop stop-color="#69FFED"/>
<stop offset="1" stop-color="#E392FF" stop-opacity="0"/>
</linearGradient>
<linearGradient id="paint6_linear_2_157" x1="4.22811" y1="0" x2="4.22811" y2="723.273" gradientUnits="userSpaceOnUse">
<stop stop-color="#69FFED"/>
<stop offset="1" stop-color="#E392FF" stop-opacity="0"/>
</linearGradient>
<linearGradient id="paint7_linear_2_157" x1="4.22811" y1="0" x2="4.22811" y2="723.273" gradientUnits="userSpaceOnUse">
<stop stop-color="#69FFED"/>
<stop offset="1" stop-color="#E392FF" stop-opacity="0"/>
</linearGradient>
<linearGradient id="paint8_linear_2_157" x1="4.22811" y1="0" x2="4.22811" y2="723.273" gradientUnits="userSpaceOnUse">
<stop stop-color="#69FFED"/>
<stop offset="1" stop-color="#E392FF" stop-opacity="0"/>
</linearGradient>
<linearGradient id="paint9_linear_2_157" x1="4.22811" y1="0" x2="4.22811" y2="723.273" gradientUnits="userSpaceOnUse">
<stop stop-color="#69FFED"/>
<stop offset="1" stop-color="#E392FF" stop-opacity="0"/>
</linearGradient>
<linearGradient id="paint10_linear_2_157" x1="4.22811" y1="0" x2="4.22811" y2="723.273" gradientUnits="userSpaceOnUse">
<stop stop-color="#69FFED"/>
<stop offset="1" stop-color="#E392FF" stop-opacity="0"/>
</linearGradient>
<linearGradient id="paint11_linear_2_157" x1="4.22811" y1="0" x2="4.22811" y2="723.273" gradientUnits="userSpaceOnUse">
<stop stop-color="#69FFED"/>
<stop offset="1" stop-color="#E392FF" stop-opacity="0"/>
</linearGradient>
<linearGradient id="paint12_linear_2_157" x1="4.22811" y1="0" x2="4.22811" y2="723.273" gradientUnits="userSpaceOnUse">
<stop stop-color="#69FFED"/>
<stop offset="1" stop-color="#E392FF" stop-opacity="0"/>
</linearGradient>
<linearGradient id="paint13_linear_2_157" x1="4.22811" y1="0" x2="4.22811" y2="723.273" gradientUnits="userSpaceOnUse">
<stop stop-color="#69FFED"/>
<stop offset="1" stop-color="#E392FF" stop-opacity="0"/>
</linearGradient>
<linearGradient id="paint14_linear_2_157" x1="4.22811" y1="0" x2="4.22811" y2="723.273" gradientUnits="userSpaceOnUse">
<stop stop-color="#69FFED"/>
<stop offset="1" stop-color="#E392FF" stop-opacity="0"/>
</linearGradient>
</defs>
</svg>
