<svg width="46" height="46" viewBox="0 0 46 46" fill="none" xmlns="http://www.w3.org/2000/svg">
<path d="M26.854 15.0568C26.7994 23.3225 20.7437 29.9828 13.3283 29.9329C5.91289 29.8831 -0.054234 23.142 0.000371807 14.8764C0.0549776 6.6107 6.11063 -0.0495514 13.5261 0.000277786C20.9415 0.050107 26.9086 6.79115 26.854 15.0568Z" fill="#282323"/>
<path d="M45.9996 15.1855C45.945 23.4511 39.8894 30.1114 32.4739 30.0616C25.0585 30.0117 19.0914 23.2707 19.146 15.005C19.2006 6.73936 25.2563 0.0790993 32.6717 0.128929C40.0871 0.178758 46.0542 6.9198 45.9996 15.1855Z" fill="#282323"/>
<path d="M22.6711 46L3.85544 25.6459L41.754 25.9006L22.6711 46Z" fill="#282323"/>
</svg>
