<svg width="44" height="44" viewBox="0 0 44 44" fill="none" xmlns="http://www.w3.org/2000/svg">
<path d="M25.6864 14.5749C25.6342 22.3015 19.8418 28.5274 12.7488 28.4808C5.65581 28.4342 -0.051876 22.1328 0.000355641 14.4062C0.0525873 6.67957 5.84495 0.45368 12.938 0.50026C20.031 0.546839 25.7387 6.84825 25.6864 14.5749Z" fill="#D691B2"/>
<path d="M43.9996 14.6951C43.9474 22.4217 38.155 28.6476 31.062 28.601C23.969 28.5545 18.2613 22.253 18.3136 14.5264C18.3658 6.79983 24.1582 0.573941 31.2512 0.62052C38.3442 0.6671 44.0519 6.96851 43.9996 14.6951Z" fill="#D691B2"/>
<path d="M21.6854 43.5L3.68781 24.4733L39.9386 24.7114L21.6854 43.5Z" fill="#D691B2"/>
</svg>
